<mxfile host="app.diagrams.net" agent="Mozilla/5.0 (Windows NT 10.0; Win64; x64) AppleWebKit/537.36 (KHTML, like Gecko) Chrome/135.0.0.0 Safari/537.36 Edg/135.0.0.0" version="26.1.0">
  <diagram name="Page-1" id="jZGVw6cfJ8QL-QiehB6X">
    <mxGraphModel dx="1426" dy="829" grid="1" gridSize="10" guides="1" tooltips="1" connect="1" arrows="1" fold="1" page="1" pageScale="1" pageWidth="827" pageHeight="1169" math="0" shadow="0">
      <root>
        <mxCell id="0" />
        <mxCell id="1" parent="0" />
        <mxCell id="GQBxz2ciyyMhuZA-kbwp-35" value="" style="rounded=0;whiteSpace=wrap;html=1;dashed=1;" vertex="1" parent="1">
          <mxGeometry x="280" y="140" width="300" height="120" as="geometry" />
        </mxCell>
        <mxCell id="GQBxz2ciyyMhuZA-kbwp-12" style="edgeStyle=orthogonalEdgeStyle;rounded=0;orthogonalLoop=1;jettySize=auto;html=1;exitX=0.5;exitY=1;exitDx=0;exitDy=0;entryX=0.5;entryY=1;entryDx=0;entryDy=0;fillColor=#fff2cc;strokeColor=#d6b656;" edge="1" parent="1" source="GQBxz2ciyyMhuZA-kbwp-1" target="GQBxz2ciyyMhuZA-kbwp-19">
          <mxGeometry relative="1" as="geometry">
            <mxPoint x="210" y="220" as="targetPoint" />
          </mxGeometry>
        </mxCell>
        <mxCell id="GQBxz2ciyyMhuZA-kbwp-13" style="edgeStyle=orthogonalEdgeStyle;rounded=0;orthogonalLoop=1;jettySize=auto;html=1;exitX=0.5;exitY=1;exitDx=0;exitDy=0;entryX=0.5;entryY=1;entryDx=0;entryDy=0;fillColor=#fff2cc;strokeColor=#d6b656;" edge="1" parent="1" source="GQBxz2ciyyMhuZA-kbwp-1" target="GQBxz2ciyyMhuZA-kbwp-4">
          <mxGeometry relative="1" as="geometry" />
        </mxCell>
        <mxCell id="GQBxz2ciyyMhuZA-kbwp-15" style="edgeStyle=orthogonalEdgeStyle;rounded=0;orthogonalLoop=1;jettySize=auto;html=1;exitX=0.5;exitY=1;exitDx=0;exitDy=0;entryX=0.5;entryY=1;entryDx=0;entryDy=0;fillColor=#fff2cc;strokeColor=#d6b656;" edge="1" parent="1" source="GQBxz2ciyyMhuZA-kbwp-1" target="GQBxz2ciyyMhuZA-kbwp-8">
          <mxGeometry relative="1" as="geometry" />
        </mxCell>
        <mxCell id="GQBxz2ciyyMhuZA-kbwp-33" value="" style="rounded=0;whiteSpace=wrap;html=1;dashed=1;" vertex="1" parent="1">
          <mxGeometry x="280" y="10" width="300" height="120" as="geometry" />
        </mxCell>
        <mxCell id="GQBxz2ciyyMhuZA-kbwp-5" style="edgeStyle=orthogonalEdgeStyle;rounded=0;orthogonalLoop=1;jettySize=auto;html=1;exitX=1;exitY=0.75;exitDx=0;exitDy=0;entryX=0;entryY=0.5;entryDx=0;entryDy=0;" edge="1" parent="1" source="GQBxz2ciyyMhuZA-kbwp-19" target="GQBxz2ciyyMhuZA-kbwp-4">
          <mxGeometry relative="1" as="geometry">
            <mxPoint x="270" y="190" as="sourcePoint" />
            <Array as="points">
              <mxPoint x="270" y="145" />
              <mxPoint x="270" y="180" />
            </Array>
          </mxGeometry>
        </mxCell>
        <mxCell id="GQBxz2ciyyMhuZA-kbwp-28" style="edgeStyle=orthogonalEdgeStyle;rounded=0;orthogonalLoop=1;jettySize=auto;html=1;exitX=0.5;exitY=0;exitDx=0;exitDy=0;entryX=0.5;entryY=0;entryDx=0;entryDy=0;fillColor=#fff2cc;strokeColor=#d6b656;" edge="1" parent="1" source="GQBxz2ciyyMhuZA-kbwp-1" target="GQBxz2ciyyMhuZA-kbwp-18">
          <mxGeometry relative="1" as="geometry" />
        </mxCell>
        <mxCell id="GQBxz2ciyyMhuZA-kbwp-29" style="edgeStyle=orthogonalEdgeStyle;rounded=0;orthogonalLoop=1;jettySize=auto;html=1;exitX=0.5;exitY=0;exitDx=0;exitDy=0;entryX=0.5;entryY=0;entryDx=0;entryDy=0;fillColor=#fff2cc;strokeColor=#d6b656;" edge="1" parent="1" source="GQBxz2ciyyMhuZA-kbwp-1" target="GQBxz2ciyyMhuZA-kbwp-17">
          <mxGeometry relative="1" as="geometry" />
        </mxCell>
        <mxCell id="GQBxz2ciyyMhuZA-kbwp-32" style="edgeStyle=orthogonalEdgeStyle;rounded=0;orthogonalLoop=1;jettySize=auto;html=1;exitX=1;exitY=0.5;exitDx=0;exitDy=0;entryX=0;entryY=0.5;entryDx=0;entryDy=0;startArrow=classic;startFill=1;" edge="1" parent="1" source="GQBxz2ciyyMhuZA-kbwp-1" target="GQBxz2ciyyMhuZA-kbwp-19">
          <mxGeometry relative="1" as="geometry" />
        </mxCell>
        <mxCell id="GQBxz2ciyyMhuZA-kbwp-1" value="control computer" style="rounded=0;whiteSpace=wrap;html=1;" vertex="1" parent="1">
          <mxGeometry y="100" width="120" height="60" as="geometry" />
        </mxCell>
        <mxCell id="GQBxz2ciyyMhuZA-kbwp-7" style="edgeStyle=orthogonalEdgeStyle;rounded=0;orthogonalLoop=1;jettySize=auto;html=1;exitX=1;exitY=0.5;exitDx=0;exitDy=0;entryX=0;entryY=0.5;entryDx=0;entryDy=0;" edge="1" parent="1" source="GQBxz2ciyyMhuZA-kbwp-4" target="GQBxz2ciyyMhuZA-kbwp-8">
          <mxGeometry relative="1" as="geometry">
            <mxPoint x="450" y="190" as="targetPoint" />
          </mxGeometry>
        </mxCell>
        <mxCell id="GQBxz2ciyyMhuZA-kbwp-4" value="freq upconverter" style="rounded=0;whiteSpace=wrap;html=1;" vertex="1" parent="1">
          <mxGeometry x="294" y="150" width="120" height="60" as="geometry" />
        </mxCell>
        <mxCell id="GQBxz2ciyyMhuZA-kbwp-11" style="edgeStyle=orthogonalEdgeStyle;rounded=0;orthogonalLoop=1;jettySize=auto;html=1;exitX=1;exitY=0.5;exitDx=0;exitDy=0;entryX=0;entryY=0.75;entryDx=0;entryDy=0;" edge="1" parent="1" source="GQBxz2ciyyMhuZA-kbwp-8" target="GQBxz2ciyyMhuZA-kbwp-25">
          <mxGeometry relative="1" as="geometry">
            <mxPoint x="600" y="145" as="targetPoint" />
            <Array as="points">
              <mxPoint x="560" y="190" />
              <mxPoint x="590" y="190" />
              <mxPoint x="590" y="145" />
            </Array>
          </mxGeometry>
        </mxCell>
        <mxCell id="GQBxz2ciyyMhuZA-kbwp-8" value="power amplifier" style="rounded=0;whiteSpace=wrap;html=1;fillColor=#f8cecc;strokeColor=#b85450;" vertex="1" parent="1">
          <mxGeometry x="440" y="150" width="120" height="60" as="geometry" />
        </mxCell>
        <mxCell id="GQBxz2ciyyMhuZA-kbwp-22" style="edgeStyle=orthogonalEdgeStyle;rounded=0;orthogonalLoop=1;jettySize=auto;html=1;exitX=0;exitY=0.5;exitDx=0;exitDy=0;entryX=1;entryY=0.5;entryDx=0;entryDy=0;" edge="1" parent="1" source="GQBxz2ciyyMhuZA-kbwp-17" target="GQBxz2ciyyMhuZA-kbwp-18">
          <mxGeometry relative="1" as="geometry" />
        </mxCell>
        <mxCell id="GQBxz2ciyyMhuZA-kbwp-17" value="low noise amplifier" style="rounded=0;whiteSpace=wrap;html=1;" vertex="1" parent="1">
          <mxGeometry x="440" y="50" width="120" height="60" as="geometry" />
        </mxCell>
        <mxCell id="GQBxz2ciyyMhuZA-kbwp-20" style="edgeStyle=orthogonalEdgeStyle;rounded=0;orthogonalLoop=1;jettySize=auto;html=1;exitX=0;exitY=0.5;exitDx=0;exitDy=0;entryX=1;entryY=0.25;entryDx=0;entryDy=0;" edge="1" parent="1" source="GQBxz2ciyyMhuZA-kbwp-18" target="GQBxz2ciyyMhuZA-kbwp-19">
          <mxGeometry relative="1" as="geometry">
            <Array as="points">
              <mxPoint x="270" y="80" />
              <mxPoint x="270" y="115" />
            </Array>
          </mxGeometry>
        </mxCell>
        <mxCell id="GQBxz2ciyyMhuZA-kbwp-18" value="freq downconverter" style="rounded=0;whiteSpace=wrap;html=1;" vertex="1" parent="1">
          <mxGeometry x="300" y="50" width="120" height="60" as="geometry" />
        </mxCell>
        <mxCell id="GQBxz2ciyyMhuZA-kbwp-19" value="cortex modem" style="rounded=0;whiteSpace=wrap;html=1;" vertex="1" parent="1">
          <mxGeometry x="140" y="100" width="120" height="60" as="geometry" />
        </mxCell>
        <mxCell id="GQBxz2ciyyMhuZA-kbwp-23" style="edgeStyle=orthogonalEdgeStyle;rounded=0;orthogonalLoop=1;jettySize=auto;html=1;exitX=0;exitY=0.25;exitDx=0;exitDy=0;entryX=1;entryY=0.5;entryDx=0;entryDy=0;" edge="1" parent="1" source="GQBxz2ciyyMhuZA-kbwp-25" target="GQBxz2ciyyMhuZA-kbwp-17">
          <mxGeometry relative="1" as="geometry">
            <mxPoint x="600" y="115" as="sourcePoint" />
            <Array as="points">
              <mxPoint x="590" y="115" />
              <mxPoint x="590" y="80" />
            </Array>
          </mxGeometry>
        </mxCell>
        <mxCell id="GQBxz2ciyyMhuZA-kbwp-27" style="edgeStyle=orthogonalEdgeStyle;rounded=0;orthogonalLoop=1;jettySize=auto;html=1;exitX=1;exitY=0.5;exitDx=0;exitDy=0;entryX=0;entryY=0.5;entryDx=0;entryDy=0;startArrow=classic;startFill=1;" edge="1" parent="1" source="GQBxz2ciyyMhuZA-kbwp-25" target="GQBxz2ciyyMhuZA-kbwp-26">
          <mxGeometry relative="1" as="geometry" />
        </mxCell>
        <mxCell id="GQBxz2ciyyMhuZA-kbwp-25" value="diplekser" style="rounded=0;whiteSpace=wrap;html=1;" vertex="1" parent="1">
          <mxGeometry x="610" y="100" width="120" height="60" as="geometry" />
        </mxCell>
        <mxCell id="GQBxz2ciyyMhuZA-kbwp-26" value="&lt;div&gt;antenna&lt;/div&gt;" style="rounded=0;whiteSpace=wrap;html=1;" vertex="1" parent="1">
          <mxGeometry x="750" y="100" width="120" height="60" as="geometry" />
        </mxCell>
        <mxCell id="GQBxz2ciyyMhuZA-kbwp-34" value="RX" style="text;html=1;align=center;verticalAlign=middle;whiteSpace=wrap;rounded=0;" vertex="1" parent="1">
          <mxGeometry x="520" y="10" width="60" height="30" as="geometry" />
        </mxCell>
        <mxCell id="GQBxz2ciyyMhuZA-kbwp-36" value="TX" style="text;html=1;align=center;verticalAlign=middle;whiteSpace=wrap;rounded=0;" vertex="1" parent="1">
          <mxGeometry x="520" y="230" width="60" height="30" as="geometry" />
        </mxCell>
      </root>
    </mxGraphModel>
  </diagram>
</mxfile>
